<svg width="35" height="35" viewBox="0 0 35 35" fill="none" xmlns="http://www.w3.org/2000/svg">
<path d="M26.25 27.5042H25.1417C23.975 27.5042 22.8667 27.9562 22.05 28.7729L19.5563 31.2376C18.4188 32.3605 16.5667 32.3605 15.4292 31.2376L12.9354 28.7729C12.1187 27.9562 10.9958 27.5042 9.84375 27.5042H8.75C6.32917 27.5042 4.375 25.5646 4.375 23.1729V7.26248C4.375 4.87081 6.32917 2.93127 8.75 2.93127H26.25C28.6708 2.93127 30.625 4.87081 30.625 7.26248V23.1729C30.625 25.55 28.6708 27.5042 26.25 27.5042Z" stroke="#121111" stroke-width="2" stroke-miterlimit="10" stroke-linecap="round" stroke-linejoin="round"/>
<path d="M10.2083 13.3584C10.2083 12.0021 11.3166 10.8937 12.6729 10.8937C14.0292 10.8937 15.1375 12.0021 15.1375 13.3584C15.1375 16.1 11.2437 16.3917 10.3833 19.0021C10.2083 19.5417 10.6604 20.0813 11.2291 20.0813H15.1375" stroke="#5EB5F8" stroke-width="2" stroke-linecap="round" stroke-linejoin="round"/>
<path d="M23.3916 20.0667V11.7396C23.3916 11.3605 23.1437 11.025 22.7791 10.9229C22.4145 10.8208 22.0208 10.9666 21.8166 11.2875C20.7666 12.9791 19.6291 14.9042 18.6375 16.5958C18.477 16.8729 18.477 17.2375 18.6375 17.5146C18.7979 17.7917 19.1041 17.9666 19.4396 17.9666H24.7916" stroke="#5EB5F8" stroke-width="2" stroke-linecap="round" stroke-linejoin="round"/>
</svg>
