<svg width="30" height="30" viewBox="0 0 30 30" fill="none" xmlns="http://www.w3.org/2000/svg">
<path d="M18.75 2.5V15C18.75 16.375 17.625 17.5 16.25 17.5H2.5V7.5C2.5 4.7375 4.7375 2.5 7.5 2.5H18.75Z" stroke="white" stroke-width="1.5" stroke-linecap="round" stroke-linejoin="round"/>
<path d="M27.5 17.5V21.25C27.5 23.325 25.825 25 23.75 25H22.5C22.5 23.625 21.375 22.5 20 22.5C18.625 22.5 17.5 23.625 17.5 25H12.5C12.5 23.625 11.375 22.5 10 22.5C8.625 22.5 7.5 23.625 7.5 25H6.25C4.175 25 2.5 23.325 2.5 21.25V17.5H16.25C17.625 17.5 18.75 16.375 18.75 15V6.25H21.05C21.95 6.25 22.775 6.73751 23.225 7.51251L25.3625 11.25H23.75C23.0625 11.25 22.5 11.8125 22.5 12.5V16.25C22.5 16.9375 23.0625 17.5 23.75 17.5H27.5Z" stroke="white" stroke-width="1.5" stroke-linecap="round" stroke-linejoin="round"/>
<path d="M10 27.5C11.3807 27.5 12.5 26.3807 12.5 25C12.5 23.6193 11.3807 22.5 10 22.5C8.61929 22.5 7.5 23.6193 7.5 25C7.5 26.3807 8.61929 27.5 10 27.5Z" stroke="white" stroke-width="1.5" stroke-linecap="round" stroke-linejoin="round"/>
<path d="M20 27.5C21.3807 27.5 22.5 26.3807 22.5 25C22.5 23.6193 21.3807 22.5 20 22.5C18.6193 22.5 17.5 23.6193 17.5 25C17.5 26.3807 18.6193 27.5 20 27.5Z" stroke="white" stroke-width="1.5" stroke-linecap="round" stroke-linejoin="round"/>
<path d="M27.5 15V17.5H23.75C23.0625 17.5 22.5 16.9375 22.5 16.25V12.5C22.5 11.8125 23.0625 11.25 23.75 11.25H25.3625L27.5 15Z" stroke="white" stroke-width="1.5" stroke-linecap="round" stroke-linejoin="round"/>
</svg>
