<svg width="19" height="17" viewBox="0 0 19 17" fill="none" xmlns="http://www.w3.org/2000/svg">
<path fill-rule="evenodd" clip-rule="evenodd" d="M3.31082 0.539803C7.90156 -0.238567 10.5546 -0.117974 15.17 0.537063C16.8939 0.780988 18.5 1.98828 18.5 3.95614V5.54988C18.5 5.68368 18.4608 5.81454 18.3872 5.92632C18.3137 6.03809 18.209 6.12589 18.0861 6.17888C17.7174 6.33782 17.4032 6.60129 17.1825 6.93676C16.9618 7.27223 16.8442 7.665 16.8442 8.06656C16.8442 8.46812 16.9618 8.86089 17.1825 9.19636C17.4032 9.53183 17.7174 9.7953 18.0861 9.95425C18.2092 10.0073 18.314 10.0953 18.3876 10.2074C18.4612 10.3194 18.5002 10.4506 18.5 10.5846V12.1784C18.5 13.1102 18.1601 13.9215 17.5449 14.5244C16.9378 15.1192 16.1032 15.4755 15.1618 15.5974C10.556 16.1949 7.95363 16.2004 3.33685 15.5974C1.48959 15.3576 1.04825e-06 14.1284 1.04825e-06 12.1784V10.5832C3.45685e-05 10.4494 0.0392423 10.3186 0.112786 10.2068C0.186329 10.095 0.29099 10.0072 0.413853 9.95425C0.782622 9.7953 1.09676 9.53183 1.31747 9.19636C1.53818 8.86089 1.6558 8.46812 1.6558 8.06656C1.6558 7.665 1.53818 7.27223 1.31747 6.93676C1.09676 6.60129 0.782622 6.33782 0.413853 6.17888C0.290776 6.1258 0.185969 6.03779 0.112409 5.92574C0.038849 5.8137 -0.000233355 5.68254 1.04825e-06 5.54851V3.95751C1.04825e-06 3.01195 0.36452 2.2144 0.983927 1.62377C1.59237 1.04547 2.41459 0.690544 3.31082 0.539803ZM8.10711 5.32788C8.11531 5.50916 8.08668 5.69022 8.02295 5.86013C7.95923 6.03004 7.86173 6.18527 7.73634 6.31646C7.61096 6.44764 7.46029 6.55205 7.29343 6.62338C7.12657 6.69472 6.94699 6.73149 6.76552 6.73149C6.58405 6.73149 6.40447 6.69472 6.23761 6.62338C6.07075 6.55205 5.92008 6.44764 5.79469 6.31646C5.66931 6.18527 5.57181 6.03004 5.50808 5.86013C5.44436 5.69022 5.41573 5.50916 5.42393 5.32788C5.43507 4.97931 5.58136 4.64874 5.83187 4.40611C6.08238 4.16347 6.41746 4.02781 6.7662 4.02781C7.11495 4.02781 7.45002 4.16347 7.70053 4.40611C7.95104 4.64874 8.09597 4.97931 8.10711 5.32788ZM11.7359 12.1797C12.092 12.1797 12.4336 12.0382 12.6855 11.7864C12.9373 11.5345 13.0788 11.1929 13.0788 10.8368C13.0788 10.4806 12.9373 10.139 12.6855 9.88715C12.4336 9.63529 12.092 9.4938 11.7359 9.4938C11.3797 9.4938 11.0381 9.63529 10.7862 9.88715C10.5344 10.139 10.3929 10.4806 10.3929 10.8368C10.3929 11.1929 10.5344 11.5345 10.7862 11.7864C11.0381 12.0382 11.3797 12.1797 11.7359 12.1797ZM12.7773 5.46217C12.92 5.28536 12.9866 5.05911 12.9624 4.83322C12.9382 4.60732 12.8253 4.40027 12.6485 4.25762C12.4717 4.11497 12.2455 4.0484 12.0196 4.07255C11.7937 4.09671 11.5866 4.20962 11.444 4.38643C9.35963 6.96821 8.01393 8.29747 5.27867 10.549C5.18887 10.6194 5.11406 10.7072 5.05863 10.8069C5.00321 10.9067 4.96829 11.0166 4.95593 11.1301C4.94357 11.2435 4.95402 11.3583 4.98666 11.4677C5.0193 11.5771 5.07347 11.6788 5.146 11.767C5.21852 11.8551 5.30793 11.9279 5.40898 11.981C5.51002 12.0341 5.62066 12.0664 5.73439 12.0762C5.84812 12.0859 5.96265 12.0728 6.07124 12.0376C6.17983 12.0025 6.2803 11.9459 6.36674 11.8714C9.18148 9.55547 10.6108 8.14399 12.776 5.4608" fill="#2C2C2C"/>
</svg>
