<svg width="23" height="23" viewBox="0 0 23 23" fill="none" xmlns="http://www.w3.org/2000/svg">
<path d="M18.75 20.25C18.75 21.0784 19.4216 21.75 20.25 21.75C21.0784 21.75 21.75 21.0784 21.75 20.25C21.75 19.4216 21.0784 18.75 20.25 18.75C19.4216 18.75 18.75 19.4216 18.75 20.25Z" stroke="white" stroke-width="1.5" stroke-linecap="round" stroke-linejoin="round"/>
<path d="M9.75 20.25C9.75 21.0784 10.4216 21.75 11.25 21.75C12.0784 21.75 12.75 21.0784 12.75 20.25C12.75 19.4216 12.0784 18.75 11.25 18.75C10.4216 18.75 9.75 19.4216 9.75 20.25Z" stroke="white" stroke-width="1.5" stroke-linecap="round" stroke-linejoin="round"/>
<path d="M0.75 20.25C0.75 21.0784 1.42157 21.75 2.25 21.75C3.07843 21.75 3.75 21.0784 3.75 20.25C3.75 19.4216 3.07843 18.75 2.25 18.75C1.42157 18.75 0.75 19.4216 0.75 20.25Z" stroke="white" stroke-width="1.5" stroke-linecap="round" stroke-linejoin="round"/>
<path d="M18.75 11.25C18.75 12.0784 19.4216 12.75 20.25 12.75C21.0784 12.75 21.75 12.0784 21.75 11.25C21.75 10.4216 21.0784 9.75 20.25 9.75C19.4216 9.75 18.75 10.4216 18.75 11.25Z" stroke="white" stroke-width="1.5" stroke-linecap="round" stroke-linejoin="round"/>
<path d="M9.75 11.25C9.75 12.0784 10.4216 12.75 11.25 12.75C12.0784 12.75 12.75 12.0784 12.75 11.25C12.75 10.4216 12.0784 9.75 11.25 9.75C10.4216 9.75 9.75 10.4216 9.75 11.25Z" stroke="white" stroke-width="1.5" stroke-linecap="round" stroke-linejoin="round"/>
<path d="M0.75 11.25C0.75 12.0784 1.42157 12.75 2.25 12.75C3.07843 12.75 3.75 12.0784 3.75 11.25C3.75 10.4216 3.07843 9.75 2.25 9.75C1.42157 9.75 0.75 10.4216 0.75 11.25Z" stroke="white" stroke-width="1.5" stroke-linecap="round" stroke-linejoin="round"/>
<path d="M18.75 2.25C18.75 3.07843 19.4216 3.75 20.25 3.75C21.0784 3.75 21.75 3.07843 21.75 2.25C21.75 1.42157 21.0784 0.75 20.25 0.75C19.4216 0.75 18.75 1.42157 18.75 2.25Z" stroke="white" stroke-width="1.5" stroke-linecap="round" stroke-linejoin="round"/>
<path d="M9.75 2.25C9.75 3.07843 10.4216 3.75 11.25 3.75C12.0784 3.75 12.75 3.07843 12.75 2.25C12.75 1.42157 12.0784 0.75 11.25 0.75C10.4216 0.75 9.75 1.42157 9.75 2.25Z" stroke="white" stroke-width="1.5" stroke-linecap="round" stroke-linejoin="round"/>
<path d="M0.75 2.25C0.75 3.07843 1.42157 3.75 2.25 3.75C3.07843 3.75 3.75 3.07843 3.75 2.25C3.75 1.42157 3.07843 0.75 2.25 0.75C1.42157 0.75 0.75 1.42157 0.75 2.25Z" stroke="white" stroke-width="1.5" stroke-linecap="round" stroke-linejoin="round"/>
</svg>
