<svg width="25" height="24" viewBox="0 0 25 24" fill="none" xmlns="http://www.w3.org/2000/svg">
<path fill-rule="evenodd" clip-rule="evenodd" d="M3.561 12.5932C3.28004 10.9259 2.76169 9.28585 2.24762 7.70024C2.1358 7.35924 1.7714 7.16549 1.44579 7.29087C1.1091 7.39335 0.929562 7.75937 1.03054 8.07736C1.53005 9.61359 2.03831 11.2018 2.30214 12.7929C2.35687 13.1327 2.68641 13.3712 3.03536 13.3192C3.38408 13.2673 3.61549 12.9331 3.561 12.5932Z" fill="#5EB5F8"/>
<path fill-rule="evenodd" clip-rule="evenodd" d="M11.5245 14.2955C12.8258 10.7855 13.6747 7.12311 15.0625 3.6285C15.1968 3.31208 15.0357 2.93808 14.7107 2.81006C14.3855 2.68215 14.0102 2.83105 13.8868 3.17047C12.4918 6.66844 11.636 10.3341 10.3276 13.8475C10.2097 14.1843 10.38 14.5539 10.7111 14.679C11.0313 14.7812 11.4066 14.6324 11.5245 14.2955Z" fill="#5EB5F8"/>
<path fill-rule="evenodd" clip-rule="evenodd" d="M22.9201 14.3508C21.5684 15.0724 20.2167 15.7938 18.8648 16.5155C18.5477 16.665 18.4331 17.0567 18.6004 17.3715C18.7679 17.6863 19.1462 17.789 19.4635 17.6394C20.8175 16.9167 22.1713 16.1943 23.525 15.4718C23.8313 15.2993 23.9443 14.9085 23.7752 14.5945C23.6169 14.3035 23.2261 14.1785 22.9201 14.3508Z" fill="#5EB5F8"/>
</svg>
