<svg width="40" height="40" viewBox="0 0 40 40" fill="none" xmlns="http://www.w3.org/2000/svg">
<path d="M19.9975 0C14.5613 0 13.8837 0.02625 11.7562 0.11625C9.62 0.22125 8.175 0.5525 6.9 1.0475C5.56563 1.55138 4.35716 2.34011 3.35875 3.35875C2.33854 4.35587 1.54957 5.56471 1.0475 6.9C0.5525 8.175 0.22125 9.62 0.11625 11.7562C0.02 13.885 0 14.5613 0 19.9975C0 25.4338 0.02625 26.1112 0.11625 28.2388C0.22125 30.3687 0.5525 31.82 1.0475 33.095C1.55138 34.4294 2.34011 35.6378 3.35875 36.6362C4.35587 37.6565 5.56471 38.4454 6.9 38.9475C8.175 39.4363 9.62625 39.7738 11.7562 39.8787C13.885 39.975 14.5613 39.995 19.9975 39.995C25.4338 39.995 26.1112 39.9688 28.2388 39.8787C30.3687 39.7738 31.82 39.435 33.095 38.9475C34.4294 38.4436 35.6378 37.6549 36.6362 36.6362C37.6597 35.6418 38.4491 34.4322 38.9475 33.095C39.4362 31.82 39.7738 30.3687 39.8787 28.2388C39.975 26.11 39.995 25.4338 39.995 19.9975C39.995 14.5613 39.9688 13.8837 39.8787 11.7562C39.7738 9.62625 39.435 8.1675 38.9475 6.9C38.4436 5.56563 37.6549 4.35716 36.6362 3.35875C35.6418 2.33534 34.4322 1.54588 33.095 1.0475C31.82 0.5525 30.3687 0.22125 28.2388 0.11625C26.11 0.02 25.4338 0 19.9975 0ZM19.9975 3.6C25.3363 3.6 25.9737 3.62625 28.0837 3.71625C30.03 3.8075 31.09 4.1325 31.7937 4.4075C32.6636 4.72907 33.4509 5.24017 34.0987 5.90375C34.7626 6.54768 35.272 7.33359 35.5887 8.2025C35.8637 8.90625 36.1887 9.96625 36.28 11.9125C36.37 14.0225 36.3962 14.6612 36.3962 19.9987C36.3962 25.3363 36.37 25.975 36.2725 28.085C36.1675 30.0312 35.8425 31.0913 35.5687 31.795C35.19 32.7337 34.7675 33.39 34.07 34.1C33.4202 34.7597 32.6333 35.2684 31.765 35.59C31.07 35.865 29.995 36.19 28.0412 36.2812C25.92 36.3713 25.295 36.3975 19.9425 36.3975C14.59 36.3975 13.9663 36.3713 11.8425 36.2738C9.89625 36.1688 8.8225 35.8438 8.11875 35.57C7.16875 35.1912 6.5175 34.7687 5.82 34.0713C5.11625 33.3675 4.66875 32.6975 4.32375 31.7663C4.04375 31.0713 3.72375 29.9963 3.62 28.0425C3.54875 25.9463 3.515 25.2963 3.515 19.9688C3.515 14.6438 3.54875 13.9925 3.62 11.87C3.72375 9.91625 4.04375 8.84375 4.32375 8.14625C4.66875 7.195 5.1175 6.545 5.82 5.84125C6.51625 5.145 7.16875 4.695 8.11875 4.3425C8.8225 4.06875 9.87 3.74375 11.8238 3.64625C13.945 3.57 14.57 3.5425 19.915 3.5425L19.9975 3.6ZM19.9975 9.73375C18.6492 9.73326 17.314 9.99846 16.0682 10.5142C14.8224 11.03 13.6905 11.7862 12.7371 12.7396C11.7837 13.693 11.0275 14.8249 10.5117 16.0707C9.99597 17.3165 9.73076 18.6517 9.73125 20C9.73076 21.3483 9.99597 22.6835 10.5117 23.9293C11.0275 25.1751 11.7837 26.307 12.7371 27.2604C13.6905 28.2138 14.8224 28.97 16.0682 29.4858C17.314 30.0015 18.6492 30.2667 19.9975 30.2662C21.3458 30.2667 22.681 30.0015 23.9268 29.4858C25.1726 28.97 26.3045 28.2138 27.2579 27.2604C28.2113 26.307 28.9675 25.1751 29.4833 23.9293C29.999 22.6835 30.2642 21.3483 30.2637 20C30.2642 18.6517 29.999 17.3165 29.4833 16.0707C28.9675 14.8249 28.2113 13.693 27.2579 12.7396C26.3045 11.7862 25.1726 11.03 23.9268 10.5142C22.681 9.99846 21.3458 9.73326 19.9975 9.73375ZM19.9975 26.6663C16.3125 26.6663 13.3313 23.685 13.3313 20C13.3313 16.315 16.3125 13.3337 19.9975 13.3337C23.6825 13.3337 26.6637 16.315 26.6637 20C26.6637 23.685 23.6825 26.6663 19.9975 26.6663ZM33.0775 9.32375C33.0768 9.96083 32.8233 10.5716 32.3726 11.0218C31.9219 11.4721 31.3108 11.725 30.6737 11.725C30.3587 11.725 30.0468 11.663 29.7558 11.5424C29.4648 11.4219 29.2003 11.2452 28.9776 11.0224C28.7548 10.7997 28.5781 10.5352 28.4576 10.2442C28.337 9.95318 28.275 9.64126 28.275 9.32625C28.275 9.01124 28.337 8.69932 28.4576 8.40829C28.5781 8.11726 28.7548 7.85282 28.9776 7.63008C29.2003 7.40733 29.4648 7.23064 29.7558 7.11009C30.0468 6.98955 30.3587 6.9275 30.6737 6.9275C31.995 6.9275 33.0775 8.0025 33.0775 9.32375Z" fill="white"/>
</svg>
