<svg width="110" height="10" viewBox="0 0 110 10" fill="none" xmlns="http://www.w3.org/2000/svg">
<path fill-rule="evenodd" clip-rule="evenodd" d="M66.9482 0.112561C66.8525 0.172883 66.0495 0.210361 65.1639 0.195877C63.8166 0.173779 63.522 0.210211 63.3591 0.4188C63.1784 0.650084 63.1708 0.649636 63.2535 0.411334C63.3324 0.184977 63.2357 0.158698 62.433 0.187366C61.9326 0.205433 61.523 0.261127 61.5228 0.311295C61.5227 0.361614 61.3445 0.368631 61.1269 0.326973C60.8411 0.272325 60.7627 0.301889 60.844 0.433433C60.9245 0.563633 60.8658 0.559153 60.6376 0.417755C60.3679 0.250526 60.2968 0.254557 60.1763 0.444034C60.0817 0.592898 60.033 0.60544 60.0315 0.481362C60.0286 0.251272 58.0047 0.216482 57.864 0.444034C57.8132 0.526155 57.8429 0.593346 57.9298 0.593346C58.0168 0.593346 58.088 0.660536 58.088 0.742658C58.088 1.02068 57.7619 0.89406 57.6811 0.584686C57.6074 0.303681 57.5167 0.283822 56.6123 0.352057C56.0688 0.393118 55.5423 0.430596 55.4421 0.435374C55.332 0.4406 55.2989 0.547208 55.3581 0.70533C55.4438 0.934076 55.4247 0.941093 55.204 0.761769C55.0655 0.649039 54.9521 0.606784 54.9521 0.668002C54.9521 0.72922 54.8682 0.718171 54.7655 0.643664C54.4832 0.438808 53.0549 0.520332 52.7673 0.757888C52.5723 0.918846 52.5 0.924072 52.4519 0.78118C52.4122 0.663373 52.2986 0.639632 52.1401 0.715931C52.003 0.782076 51.6011 0.82254 51.2469 0.805817C50.7618 0.782823 50.5319 0.851506 50.3152 1.08398C50.1569 1.2539 49.9819 1.34737 49.9263 1.29168C49.8707 1.23613 49.9075 1.19059 50.0082 1.19059C50.1088 1.19059 50.1497 1.1234 50.099 1.04128C50.0482 0.95916 49.713 0.89197 49.354 0.89197C48.7956 0.89197 48.6917 0.940645 48.6365 1.22792L48.5717 1.56387L48.5513 1.22792C48.5295 0.867483 48.299 0.771475 48.1928 1.07861C48.0926 1.36887 48.3929 1.91416 48.6621 1.93043C49.596 1.98702 50.4739 1.97194 50.9203 1.89146C51.2077 1.8398 51.8292 1.78381 52.3016 1.76709C53.1016 1.73887 53.2289 1.6657 53.1757 1.26525C53.1648 1.18313 53.2483 1.2336 53.3612 1.37723C53.6209 1.70781 54.0272 1.7111 54.3868 1.38559C54.5939 1.19821 54.6449 1.1885 54.5836 1.34827C54.5194 1.51609 54.665 1.57074 55.2396 1.59493C55.8944 1.6224 55.9858 1.58851 56.0435 1.29631L56.1088 0.966626L56.2172 1.29257C56.3186 1.59717 56.4 1.61449 57.4681 1.55805C58.0965 1.5249 59.0307 1.48683 59.5439 1.47339C60.0573 1.45995 60.4772 1.38843 60.4772 1.31452C60.4772 1.24061 60.6171 1.25495 60.7883 1.34662C61.0312 1.47653 61.154 1.46369 61.3484 1.28765C61.5286 1.1246 61.6705 1.10325 61.8619 1.21045C62.2152 1.40814 63.8749 1.52027 63.9781 1.35349C64.0231 1.28048 64.2964 1.2751 64.5907 1.34155C64.883 1.40739 65.4713 1.41725 65.8983 1.36335C66.325 1.3093 67.0996 1.29914 67.6195 1.3405C68.1394 1.38186 68.5893 1.39112 68.6193 1.36111C68.6493 1.33095 69.9543 1.30721 71.5192 1.3081C74.0632 1.3096 74.365 1.28376 74.3669 1.06353C74.3688 0.863451 74.3939 0.856284 74.501 1.02531C74.5782 1.14729 74.7628 1.1994 74.9467 1.15132C75.1194 1.10623 75.2606 1.12475 75.2606 1.19268C75.2606 1.26062 75.731 1.30482 76.3058 1.29078C76.8843 1.2766 77.3521 1.19851 77.3534 1.11594C77.3548 1.03382 77.408 1.04875 77.4717 1.14894C77.5549 1.28003 78.0689 1.31781 79.2986 1.28317C80.2398 1.25674 81.0769 1.21702 81.1591 1.19507C81.2412 1.17312 81.342 1.17148 81.383 1.19149C81.678 1.33438 83.4227 1.38604 84.6309 1.28765C85.0622 1.25256 85.4149 1.26674 85.4149 1.31915C85.4149 1.37171 85.5662 1.4286 85.7509 1.44577C86.9861 1.56029 87.6045 1.5585 87.7668 1.4398C87.8863 1.35245 87.9534 1.36365 87.9534 1.471C87.9534 1.70736 88.9277 1.68019 89.1285 1.43815C89.2199 1.32796 89.2602 1.20314 89.2178 1.16073C89.1755 1.11848 89.2433 0.998877 89.3685 0.894956C89.5551 0.73997 89.596 0.746391 89.596 0.930044C89.596 1.05323 89.496 1.23703 89.3737 1.33856C89.0028 1.64629 89.2429 1.75126 90.3413 1.76171C90.9182 1.76709 91.4573 1.81308 91.5394 1.86384C91.6215 1.91461 91.7298 1.84906 91.78 1.71826C91.8622 1.504 91.8896 1.50549 92.0564 1.73349C92.2287 1.96911 92.2539 1.96687 92.4233 1.70064C92.5723 1.46622 92.5905 1.46174 92.5239 1.67586C92.4719 1.84294 92.5217 1.93715 92.6619 1.93715C92.7825 1.93715 92.8833 1.81964 92.886 1.67586C92.8902 1.44607 92.9126 1.44189 93.0727 1.64092C93.1984 1.7974 93.4851 1.85817 94.0012 1.83756C94.4118 1.82129 95.071 1.8843 95.4658 1.97762C96.0279 2.11051 96.2502 2.10588 96.4894 1.95656C96.6576 1.8516 96.7505 1.83801 96.696 1.9261C96.6398 2.01674 96.7142 2.09139 96.8669 2.09796C97.0155 2.10423 97.2715 2.14111 97.4357 2.18008C97.7005 2.24265 99.0041 2.26325 99.2743 2.20905C99.3307 2.1977 99.4956 2.24026 99.6405 2.30357C99.7855 2.36687 100.037 2.38389 100.201 2.34119C100.364 2.29864 100.497 2.31581 100.497 2.37927C100.497 2.44287 100.783 2.49573 101.132 2.49677C101.738 2.49872 102.355 2.57695 103.736 2.82705C104.129 2.89827 104.421 2.88155 104.52 2.78226C104.631 2.67072 104.678 2.67699 104.678 2.80316C104.678 3.04027 105.08 3.03415 105.177 2.7957C105.237 2.64639 105.254 2.64639 105.264 2.7957C105.28 3.06043 105.873 3.02862 105.873 2.763C105.873 2.63369 105.961 2.57755 106.087 2.62608C106.205 2.67132 106.268 2.79689 106.226 2.90484C106.175 3.03893 106.274 3.09432 106.537 3.07909C106.862 3.06043 106.887 3.03056 106.692 2.88797C106.484 2.73597 106.485 2.70999 106.697 2.62847C106.834 2.57606 106.895 2.60025 106.842 2.68536C106.792 2.76658 106.822 2.83302 106.909 2.83302C106.996 2.83302 107.067 2.93381 107.067 3.05699C107.067 3.29589 107.245 3.35218 107.426 3.17092C107.611 2.98637 108.028 3.04415 108.22 3.28096C108.382 3.47999 108.403 3.47999 108.409 3.28096C108.413 3.13956 108.456 3.11582 108.526 3.21661C108.644 3.38951 109.908 3.92435 109.994 3.83819C110.023 3.80923 109.936 3.62692 109.8 3.43296C109.568 3.10223 109.547 3.0979 109.454 3.36323C109.362 3.62513 109.326 3.61542 108.973 3.23482C108.74 2.98234 108.413 2.81093 108.129 2.79092C107.874 2.773 107.665 2.71358 107.665 2.65878C107.664 2.3288 104.943 1.71826 104.506 1.95014C104.335 2.04093 104.234 2.0133 104.175 1.85981C104.122 1.7211 103.89 1.63853 103.554 1.63853C103.165 1.63853 103.049 1.68974 103.13 1.82517C103.2 1.94148 103.143 1.93103 102.978 1.79725C102.832 1.67914 102.531 1.57403 102.308 1.56358C102.085 1.55312 101.819 1.4931 101.717 1.43024C101.615 1.36723 101.013 1.29018 100.38 1.25898C99.7461 1.22762 99.2277 1.19328 99.2277 1.18238C99.2277 1.06278 98.0045 1.1237 97.9233 1.24733C97.8459 1.36544 97.8129 1.35976 97.8113 1.22792C97.8101 1.12534 97.7378 1.04128 97.6509 1.04128C97.564 1.04128 97.5386 1.11549 97.5946 1.20612C97.6506 1.29675 97.537 1.27107 97.3421 1.14923C96.9231 0.887042 95.1212 0.677558 95.1212 0.891074C95.1212 0.975136 94.9618 0.962296 94.7371 0.859868C94.4262 0.71832 94.3276 0.725935 94.2191 0.90048C94.1075 1.0798 94.0327 1.08354 93.7736 0.922877C93.4638 0.730862 92.7216 0.622312 91.0147 0.519436C90.5219 0.489723 90.1187 0.455979 90.1187 0.444631C90.1187 0.433134 89.8387 0.411484 89.4966 0.396552C89.0078 0.375201 88.9082 0.41014 89.0323 0.559452C89.1522 0.703687 89.1312 0.726831 88.9451 0.65546C88.8104 0.603648 88.7001 0.497935 88.7001 0.420442C88.7001 0.3428 88.3474 0.287256 87.9161 0.296961C87.2483 0.312042 84.4516 0.209763 82.9482 0.115249C82.7003 0.0997204 82.3776 0.133017 82.2311 0.189158C82.071 0.250525 82.0013 0.232458 82.0561 0.143767C82.1845 -0.0640751 81.9273 -0.0404834 81.7116 0.175272C81.5722 0.31458 81.4925 0.31458 81.3532 0.175272C81.1317 -0.0461573 80.4871 -0.0616861 80.4871 0.154219C80.4871 0.241119 80.4072 0.263067 80.3097 0.202745C80.1008 0.0735906 76.2955 0.00684857 76.3722 0.133614C76.4009 0.181245 76.2466 0.349818 76.0292 0.508387L75.6339 0.796858L75.9184 0.471059C76.2024 0.146007 76.2021 0.14541 75.7691 0.131524C75.5305 0.12376 75.0834 0.100318 74.7753 0.0792645C74.4456 0.0568677 74.2144 0.108679 74.2131 0.205284C74.2117 0.298007 74.1559 0.282926 74.0847 0.170494C73.9607 -0.0251045 73.2247 0.001772 72.8805 0.214392C72.7934 0.268294 72.7221 0.257991 72.7221 0.191547C72.7221 0.00460838 69.9785 0.0886715 69.9155 0.2777C69.879 0.386698 69.7252 0.369079 69.444 0.223799C69.2145 0.105096 68.9878 0.0468641 68.9403 0.0943453C68.8337 0.201103 67.7344 0.193339 67.3812 0.0834453C67.2389 0.0390996 67.0439 0.052239 66.9482 0.112561ZM54.2801 0.89197C54.3309 0.974091 54.3052 1.04128 54.2231 1.04128C54.141 1.04128 54.0323 0.974091 53.9815 0.89197C53.9307 0.809848 53.9564 0.742658 54.0385 0.742658C54.1207 0.742658 54.2294 0.809848 54.2801 0.89197ZM45.9401 1.11698C45.7253 1.22837 45.516 1.2654 45.4751 1.1991C45.3737 1.03501 44.6336 1.04367 44.3125 1.21284C44.1384 1.30452 44.0512 1.29541 44.0512 1.18582C44.0512 1.09518 43.9335 1.05726 43.7899 1.10131C43.6462 1.14535 43.2838 1.19672 42.9846 1.21538C42.621 1.23822 42.4643 1.31124 42.5121 1.43561C42.5564 1.55148 42.4657 1.613 42.2721 1.59836C42.1009 1.58552 41.9606 1.49967 41.9606 1.40769C41.9606 1.19612 41.4141 1.22941 41.1888 1.45473C41.0781 1.56537 40.9294 1.57657 40.7615 1.48683C40.6025 1.40172 39.9979 1.40904 39.1791 1.50594C38.4504 1.59209 37.4174 1.6781 36.8835 1.69691C36.3497 1.71572 35.7749 1.80651 35.6062 1.89848C35.4374 1.99031 35.2124 2.01181 35.1059 1.94596C34.9993 1.88012 34.667 1.87907 34.3673 1.94342C34.0675 2.00778 33.3085 2.09169 32.6804 2.12977C32.0523 2.16799 31.4598 2.24787 31.3635 2.3073C31.2673 2.36672 30.7732 2.44317 30.2655 2.47692C28.8733 2.56964 28.2227 2.64504 27.4036 2.80839C26.9943 2.89006 26.608 2.925 26.545 2.88618C26.4821 2.84721 26.4306 2.87931 26.4306 2.95755C26.4306 3.03579 26.3264 3.13971 26.1988 3.18869C26.0713 3.23751 26.0014 3.22198 26.0434 3.1542C26.1301 3.01369 25.3256 3.04803 24.8356 3.20556C24.6115 3.27768 24.5391 3.38727 24.6033 3.55704C24.6845 3.77145 24.6618 3.76906 24.4298 3.53897C24.221 3.33217 24.011 3.29261 23.4675 3.35801C23.0849 3.40399 22.5675 3.46028 22.3174 3.48298C22.0673 3.50567 21.7985 3.56212 21.7201 3.60855C21.6417 3.65499 21.3926 3.67201 21.1668 3.64648C20.941 3.62094 20.7562 3.66171 20.7562 3.73726C20.7562 3.81281 20.6385 3.86477 20.4948 3.85283C19.9307 3.80549 19.6934 3.87851 19.8054 4.06485C19.8815 4.19161 19.8366 4.18579 19.6649 4.04663C19.5081 3.91942 19.4122 3.90344 19.4122 4.00453C19.4122 4.09411 19.3183 4.13144 19.2033 4.08725C19.0885 4.0432 18.9494 4.08008 18.8943 4.16907C18.8392 4.25821 18.7396 4.29718 18.6727 4.25597C18.4837 4.13906 16.116 4.47023 15.7668 4.6624C15.5954 4.75676 15.2923 4.84441 15.0932 4.85695C14.8942 4.86964 14.6085 5.03164 14.4586 5.21694C14.2091 5.52497 14.1115 5.5069 14.1749 5.16453C14.2085 4.98207 12.7889 5.15647 12.727 5.34236C12.6995 5.42478 12.4849 5.46181 12.2499 5.42478C11.744 5.34505 11.5416 5.5838 11.821 5.93065C12.0036 6.15731 11.9895 6.15701 11.6554 5.92707C11.2834 5.671 10.4414 5.68966 9.7806 5.96858C9.61634 6.03786 9.29439 6.13551 9.06518 6.18538C8.83596 6.2351 8.68588 6.33648 8.73158 6.41054C8.77742 6.4846 8.74248 6.58986 8.65408 6.64451C8.55044 6.70857 8.58718 6.81234 8.75741 6.93686C9.06025 7.15814 9.45641 7.06721 9.30305 6.81144C9.24676 6.71738 9.31395 6.73246 9.45253 6.84474C9.66756 7.01913 9.75999 7.01272 10.0827 6.80129C10.2909 6.66497 10.5217 6.59091 10.5958 6.63675C10.67 6.68259 10.7745 6.64899 10.8281 6.56224C10.8817 6.47534 11.0647 6.44846 11.2343 6.50237C11.4738 6.57837 11.523 6.54791 11.4534 6.36664C11.3811 6.17851 11.4275 6.15746 11.6921 6.25884C11.9381 6.35291 12.111 6.30408 12.3805 6.06458C12.5785 5.88854 12.6952 5.82389 12.6395 5.92095C12.4815 6.19613 12.767 6.28019 13.0807 6.05085C13.2405 5.93394 13.4294 5.89855 13.5148 5.96947C13.7638 6.17612 14.7081 5.91318 14.7103 5.63666C14.7127 5.32624 14.9264 5.10078 14.95 5.38372C14.9599 5.50004 14.9576 5.65204 14.9454 5.72132C14.8927 6.01875 15.3069 5.68892 15.3987 5.36028C15.465 5.12302 15.5051 5.08823 15.5148 5.25934C15.5284 5.4978 15.8233 5.61008 16.2017 5.52079C16.2838 5.50138 16.4854 5.46838 16.6497 5.44748C16.8139 5.42657 16.9483 5.39223 16.9483 5.37133C16.9483 5.31414 17.4433 5.23814 18.4416 5.14228C19.4851 5.04195 19.7564 4.96849 19.6599 4.81245C19.6216 4.75034 19.7852 4.69942 20.0237 4.69942C20.2623 4.69942 20.4575 4.74347 20.4575 4.79737C20.4575 4.85127 20.5919 4.86023 20.7562 4.81738C20.9204 4.77438 21.0548 4.67658 21.0548 4.59998C21.0548 4.52294 21.352 4.49561 21.7199 4.53891C22.1897 4.59416 22.4494 4.5528 22.6039 4.39826C22.7607 4.24163 22.8394 4.22969 22.8817 4.35631C22.9269 4.49218 23.18 4.49128 23.9763 4.35197C24.5459 4.25238 25.1295 4.16802 25.2733 4.16459C25.4171 4.16115 25.5346 4.09396 25.5346 4.01543C25.5346 3.93689 25.7035 3.91494 25.9099 3.96675C26.1251 4.02065 26.3798 3.98228 26.5072 3.87657C26.6294 3.77518 26.7292 3.75443 26.7292 3.83028C26.7292 3.91375 27.1283 3.91822 27.7372 3.84163C28.2917 3.77175 28.9132 3.71949 29.1185 3.72546C29.3238 3.73129 29.7942 3.66798 30.1638 3.58451C30.5334 3.5012 31.1717 3.4028 31.5824 3.36592C31.993 3.32919 32.5642 3.25707 32.8517 3.20586C33.1391 3.15464 33.8111 3.09133 34.3449 3.06535C36.1956 2.97502 37.7057 2.80242 37.8782 2.66147C37.9743 2.58308 38.0874 2.57785 38.1319 2.64982C38.2449 2.83273 39.4649 2.71387 39.8327 2.48408C39.9355 2.41988 40.0194 2.42779 40.0194 2.50155C40.0194 2.57531 40.2377 2.6116 40.5047 2.58218C40.7717 2.55277 41.2074 2.51394 41.4731 2.49588C41.9835 2.46139 42.2514 2.11902 41.9284 1.91401C41.823 1.84712 41.7932 1.79142 41.8624 1.79008C41.9317 1.78889 42.1591 1.92222 42.3679 2.08647C42.7555 2.39136 43.9019 2.512 43.9019 2.24787C43.9019 2.16635 44.1198 2.17068 44.4381 2.25862C45.0986 2.44093 45.4194 2.33776 45.3039 1.98016C45.2493 1.81113 45.2645 1.77724 45.3453 1.88803C45.5381 2.15216 46.2911 2.30849 46.2911 2.08438C46.2911 1.93924 46.338 1.93954 46.5138 2.08527C46.6631 2.20935 46.9592 2.23667 47.4138 2.16859C48.0753 2.06929 48.0902 2.05496 48.0566 1.55417C48.0354 1.23927 47.9439 1.04128 47.8198 1.04128C47.7085 1.04128 47.6633 1.11549 47.7193 1.20612C47.7753 1.29675 47.6449 1.25539 47.4294 1.11429C47.2041 0.966625 47.0378 0.926759 47.0378 1.02038C47.0378 1.12997 46.922 1.13923 46.6842 1.04875C46.4431 0.95707 46.2065 0.978869 45.9401 1.11698ZM52.3235 1.31497C52.3658 1.3835 52.3056 1.4395 52.1896 1.4395C52.0735 1.4395 52.0134 1.3835 52.0556 1.31497C52.0979 1.24659 52.1582 1.19059 52.1896 1.19059C52.2209 1.19059 52.2812 1.24659 52.3235 1.31497ZM31.8064 2.84183C31.8064 2.91918 31.7392 2.98234 31.6571 2.98234C31.5749 2.98234 31.5077 2.87752 31.5077 2.74956C31.5077 2.6216 31.5749 2.55829 31.6571 2.60906C31.7392 2.65982 31.8064 2.76449 31.8064 2.84183ZM11.1992 5.88511C11.1992 5.92139 11.132 5.99247 11.0499 6.04323C10.9678 6.094 10.9006 6.06428 10.9006 5.97739C10.9006 5.89049 10.9678 5.81926 11.0499 5.81926C11.132 5.81926 11.1992 5.84883 11.1992 5.88511ZM7.05538 6.87624C6.87066 6.94657 6.71939 7.07348 6.71939 7.15829C6.71939 7.37674 7.12721 7.35016 7.2183 7.12574C7.27668 6.98166 7.32701 6.98629 7.4387 7.1459C7.60162 7.37883 8.36199 7.26162 8.36199 7.00346C8.36199 6.90073 8.27508 6.89819 8.10082 6.99584C7.91804 7.09797 7.77215 7.08274 7.61551 6.94508C7.46468 6.81264 7.28146 6.79009 7.05538 6.87624ZM6.12208 7.15426C6.12208 7.23161 6.19973 7.34269 6.29456 7.40122C6.3964 7.46423 6.42656 7.44258 6.36817 7.34822C6.31397 7.26042 6.35399 7.15456 6.45717 7.1129C6.57036 7.06736 6.5411 7.03272 6.38341 7.02556C6.2396 7.01914 6.12208 7.07692 6.12208 7.15426ZM5.37545 7.46394C5.37545 7.55457 5.44264 7.58712 5.52477 7.53635C5.6069 7.48559 5.6741 7.54889 5.6741 7.67685C5.6741 7.80481 5.7749 7.90963 5.89809 7.90963C6.1409 7.90963 6.18122 7.77226 6.00785 7.53635C5.85076 7.32269 5.37545 7.26834 5.37545 7.46394ZM6.94338 7.61101C6.89261 7.69313 6.92233 7.76032 7.00924 7.76032C7.09615 7.76032 7.16737 7.69313 7.16737 7.61101C7.16737 7.52889 7.13781 7.4617 7.10152 7.4617C7.06523 7.4617 6.99415 7.52889 6.94338 7.61101ZM4.64061 7.84737C4.64777 8.02132 4.68316 8.0567 4.7308 7.9377C4.77396 7.8299 4.76858 7.70104 4.719 7.65147C4.66943 7.6019 4.63419 7.68999 4.64061 7.84737ZM3.58352 8.05909C3.39731 8.18302 3.39387 8.23035 3.56276 8.3392C3.82513 8.50852 4.35927 8.37026 4.28655 8.15197C4.21069 7.92426 3.85634 7.87753 3.58352 8.05909ZM2.77581 8.33562C2.7325 8.40565 2.79358 8.59034 2.91155 8.74623C3.02951 8.90196 3.12822 8.95093 3.13076 8.85507C3.13345 8.75907 3.1763 8.57437 3.22618 8.44447C3.32205 8.19467 2.9226 8.09806 2.77581 8.33562ZM2.22046 8.51435C2.13788 8.8058 2.15207 9.25344 2.24405 9.25344C2.44131 9.25344 2.55421 8.76176 2.39383 8.60139C2.30901 8.51659 2.23106 8.47732 2.22046 8.51435ZM1.41827 8.91973C1.25222 9.04171 1.17756 9.70138 1.32987 9.70138C1.38303 9.70138 1.5443 9.56386 1.68826 9.39573C2.03589 8.9899 1.82609 8.62021 1.41827 8.91973ZM0.7463 9.39394C0.7463 9.56296 0.813497 9.70138 0.895627 9.70138C0.977757 9.70138 1.04495 9.60462 1.04495 9.48622C1.04495 9.36781 0.977757 9.22955 0.895627 9.17878C0.813497 9.12802 0.7463 9.22492 0.7463 9.39394ZM0.129877 9.50607C-0.0449858 9.72168 -0.0439404 9.74005 0.137044 9.6309C0.296078 9.53504 0.325197 9.5652 0.253669 9.75154C0.201255 9.88816 0.216337 10 0.286969 10C0.416585 10 0.596972 9.64523 0.596972 9.39051C0.596972 9.17132 0.352524 9.23179 0.129877 9.50607Z" fill="#5EB5F8"/>
</svg>
