<svg width="18" height="14" viewBox="0 0 18 14" fill="none" xmlns="http://www.w3.org/2000/svg">
<path d="M10.6364 7.36364C9.95455 7.36364 9.375 7.125 8.89773 6.64773C8.42045 6.17045 8.18182 5.59091 8.18182 4.90909C8.18182 4.22727 8.42045 3.64773 8.89773 3.17045C9.375 2.69318 9.95455 2.45455 10.6364 2.45455C11.3182 2.45455 11.8977 2.69318 12.375 3.17045C12.8523 3.64773 13.0909 4.22727 13.0909 4.90909C13.0909 5.59091 12.8523 6.17045 12.375 6.64773C11.8977 7.125 11.3182 7.36364 10.6364 7.36364ZM4.90909 9.81818C4.45909 9.81818 4.074 9.65809 3.75382 9.33791C3.43364 9.01773 3.27327 8.63236 3.27273 8.18182V1.63636C3.27273 1.18636 3.43309 0.801273 3.75382 0.481091C4.07455 0.160909 4.45964 0.000545455 4.90909 0H16.3636C16.8136 0 17.199 0.160363 17.5197 0.481091C17.8405 0.801818 18.0005 1.18691 18 1.63636V8.18182C18 8.63182 17.8399 9.01718 17.5197 9.33791C17.1995 9.65864 16.8142 9.81873 16.3636 9.81818H4.90909ZM6.54545 8.18182H14.7273C14.7273 7.73182 14.8876 7.34673 15.2084 7.02655C15.5291 6.70636 15.9142 6.546 16.3636 6.54545V3.27273C15.9136 3.27273 15.5285 3.11264 15.2084 2.79245C14.8882 2.47227 14.7278 2.08691 14.7273 1.63636H6.54545C6.54545 2.08636 6.38536 2.47173 6.06518 2.79245C5.745 3.11318 5.35964 3.27327 4.90909 3.27273V6.54545C5.35909 6.54545 5.74445 6.70582 6.06518 7.02655C6.38591 7.34727 6.546 7.73236 6.54545 8.18182ZM15.5455 13.0909H1.63636C1.18636 13.0909 0.801273 12.9308 0.481091 12.6106C0.160909 12.2905 0.000545455 11.9051 0 11.4545V2.45455H1.63636V11.4545H15.5455V13.0909Z" fill="#1A1A1A"/>
</svg>
