<svg width="18" height="18" viewBox="0 0 18 18" fill="none" xmlns="http://www.w3.org/2000/svg">
<path d="M2.34 0C1.71939 0 1.12421 0.246535 0.68537 0.68537C0.246535 1.12421 0 1.71939 0 2.34V5.76C0 6.38061 0.246535 6.97579 0.68537 7.41463C1.12421 7.85347 1.71939 8.1 2.34 8.1H5.76C6.38061 8.1 6.97579 7.85347 7.41463 7.41463C7.85347 6.97579 8.1 6.38061 8.1 5.76V2.34C8.1 1.71939 7.85347 1.12421 7.41463 0.68537C6.97579 0.246535 6.38061 0 5.76 0H2.34ZM12.24 0C11.6194 0 11.0242 0.246535 10.5854 0.68537C10.1465 1.12421 9.9 1.71939 9.9 2.34V5.76C9.9 6.38061 10.1465 6.97579 10.5854 7.41463C11.0242 7.85347 11.6194 8.1 12.24 8.1H15.66C16.2806 8.1 16.8758 7.85347 17.3146 7.41463C17.7535 6.97579 18 6.38061 18 5.76V2.34C18 1.71939 17.7535 1.12421 17.3146 0.68537C16.8758 0.246535 16.2806 0 15.66 0H12.24ZM2.34 9.9C1.71939 9.9 1.12421 10.1465 0.68537 10.5854C0.246535 11.0242 0 11.6194 0 12.24V15.66C0 16.2806 0.246535 16.8758 0.68537 17.3146C1.12421 17.7535 1.71939 18 2.34 18H5.76C6.38061 18 6.97579 17.7535 7.41463 17.3146C7.85347 16.8758 8.1 16.2806 8.1 15.66V12.24C8.1 11.6194 7.85347 11.0242 7.41463 10.5854C6.97579 10.1465 6.38061 9.9 5.76 9.9H2.34ZM12.24 9.9C11.6194 9.9 11.0242 10.1465 10.5854 10.5854C10.1465 11.0242 9.9 11.6194 9.9 12.24V15.66C9.9 16.2806 10.1465 16.8758 10.5854 17.3146C11.0242 17.7535 11.6194 18 12.24 18H15.66C16.2806 18 16.8758 17.7535 17.3146 17.3146C17.7535 16.8758 18 16.2806 18 15.66V12.24C18 11.6194 17.7535 11.0242 17.3146 10.5854C16.8758 10.1465 16.2806 9.9 15.66 9.9H12.24Z" fill="white"/>
</svg>
