<svg width="18" height="18" viewBox="0 0 18 18" fill="none" xmlns="http://www.w3.org/2000/svg">
<path d="M14.7778 4.1C14.9693 4.1 15.153 4.17375 15.2885 4.30503C15.4239 4.4363 15.5 4.61435 15.5 4.8C15.5 4.98565 15.4239 5.1637 15.2885 5.29497C15.153 5.42625 14.9693 5.5 14.7778 5.5H14.0556L14.0534 5.5497L13.3796 14.6994C13.3536 15.0526 13.1905 15.3832 12.9232 15.6245C12.6558 15.8658 12.3041 16 11.9387 16H6.06056C5.69521 16 5.34344 15.8658 5.07608 15.6245C4.80873 15.3832 4.64566 15.0526 4.61972 14.6994L3.94589 5.5504L3.94444 5.5H3.22222C3.03068 5.5 2.84698 5.42625 2.71153 5.29497C2.57609 5.1637 2.5 4.98565 2.5 4.8C2.5 4.61435 2.57609 4.4363 2.71153 4.30503C2.84698 4.17375 3.03068 4.1 3.22222 4.1H14.7778ZM10.4444 2C10.636 2 10.8197 2.07375 10.9551 2.20503C11.0906 2.3363 11.1667 2.51435 11.1667 2.7C11.1667 2.88565 11.0906 3.0637 10.9551 3.19497C10.8197 3.32625 10.636 3.4 10.4444 3.4H7.55556C7.36401 3.4 7.18031 3.32625 7.04487 3.19497C6.90942 3.0637 6.83333 2.88565 6.83333 2.7C6.83333 2.51435 6.90942 2.3363 7.04487 2.20503C7.18031 2.07375 7.36401 2 7.55556 2H10.4444Z" fill="#CA2626"/>
</svg>
