<svg width="20" height="20" viewBox="0 0 20 20" fill="none" xmlns="http://www.w3.org/2000/svg">
<path d="M15.4502 3.43337L10.8668 1.7167C10.3918 1.5417 9.61683 1.5417 9.14183 1.7167L4.5585 3.43337C3.67516 3.7667 2.9585 4.80003 2.9585 5.7417V12.4917C2.9585 13.1667 3.40016 14.0584 3.94183 14.4584L8.52516 17.8834C9.3335 18.4917 10.6585 18.4917 11.4668 17.8834L16.0502 14.4584C16.5918 14.05 17.0335 13.1667 17.0335 12.4917V5.7417C17.0418 4.80003 16.3252 3.7667 15.4502 3.43337ZM12.9002 8.10003L9.31683 11.6834C9.19183 11.8084 9.0335 11.8667 8.87516 11.8667C8.71683 11.8667 8.5585 11.8084 8.4335 11.6834L7.10016 10.3334C6.8585 10.0917 6.8585 9.6917 7.10016 9.45003C7.34183 9.20837 7.74183 9.20837 7.9835 9.45003L8.8835 10.35L12.0252 7.20837C12.2668 6.9667 12.6668 6.9667 12.9085 7.20837C13.1502 7.45003 13.1502 7.85837 12.9002 8.10003Z" fill="#6691FF"/>
</svg>
