<svg width="12" height="12" viewBox="0 0 12 12" fill="none" xmlns="http://www.w3.org/2000/svg">
<g clip-path="url(#clip0_36_824)">
<path fill-rule="evenodd" clip-rule="evenodd" d="M2.0575 0.742L2.8215 0L3.6015 0.75L2.8255 1.491L2.0575 0.742ZM5.2875 3.222C5.2875 3.844 5.1275 4.333 4.8095 4.689C4.6085 4.91 4.3475 5.079 4.0265 5.194C3.67731 5.30919 3.31112 5.3643 2.9435 5.357H2.3885C1.9675 5.357 1.5875 5.283 1.2495 5.134C0.884346 4.98037 0.571681 4.72398 0.349496 4.396C0.112633 4.02352 -0.00879146 3.58931 0.000495568 3.148C0.000495568 3.089 0.00149552 3.031 0.00449552 2.972C0.0344955 2.422 0.208496 1.814 0.529496 1.145L1.6245 1.629C1.3675 2.161 1.2275 2.629 1.2055 3.032C1.2035 3.072 1.2015 3.112 1.2015 3.152C1.2015 3.404 1.2565 3.61 1.3675 3.77C1.48683 3.94364 1.66408 4.06913 1.8675 4.124C1.9525 4.152 2.0455 4.172 2.1455 4.184C2.2245 4.194 2.3055 4.198 2.3885 4.198H2.9435C3.4015 4.198 3.7125 4.117 3.8765 3.954C4.0165 3.815 4.0865 3.571 4.0865 3.223V1.02H5.2865L5.2875 3.222ZM10.7205 6.406L10.0005 5.706L10.7095 5L11.4445 5.707L10.7205 6.406ZM7.8645 6.714C8.4065 6.714 8.8375 6.904 9.1575 7.283C9.4545 7.629 9.6025 8.06 9.6025 8.576V8.94H9.7825V8.936H10.1925C10.4135 8.936 10.5695 8.908 10.6595 8.852C10.7525 8.797 10.7995 8.712 10.7995 8.594V8.525C10.8035 8.282 10.8165 7.481 10.7995 7.41L12.0005 7.05V8.624C12.0035 8.93559 11.9025 9.23929 11.7135 9.487C11.4075 9.892 10.9095 10.094 10.2185 10.094H9.5915C9.5305 10.827 9.1575 11.351 8.4745 11.667C8.2075 11.789 7.8945 11.877 7.5375 11.932C7.23505 11.9782 6.92945 12.0006 6.6235 11.999V10.84C7.2355 10.84 7.6955 10.758 8.0035 10.593C8.2535 10.461 8.3795 10.295 8.3795 10.094H7.8645C7.4285 10.094 7.0575 9.981 6.7515 9.755C6.3845 9.482 6.2015 9.088 6.2015 8.575C6.2015 8.087 6.3235 7.674 6.5685 7.335C6.8645 6.92 7.2965 6.713 7.8645 6.713V6.714ZM8.3975 8.94V8.576C8.3975 8.359 8.3495 8.187 8.2545 8.06C8.20956 7.9995 8.15057 7.95086 8.08262 7.91828C8.01467 7.8857 7.9398 7.87016 7.8645 7.873C7.78836 7.87036 7.7127 7.88595 7.64382 7.91848C7.57494 7.95101 7.51483 7.99953 7.4685 8.06C7.37323 8.18975 7.32524 8.3482 7.3325 8.509C7.33234 8.53137 7.33334 8.55373 7.3355 8.576C7.3435 8.701 7.4015 8.796 7.5125 8.859C7.6055 8.913 7.7225 8.939 7.8645 8.939L8.3975 8.94ZM8.5005 5.707L9.2205 6.407L9.9445 5.707L9.2095 5L8.5005 5.707ZM1.8065 10.595H1.8365C2.2695 10.585 2.5815 10.489 2.7735 10.305C2.7975 10.317 2.8385 10.34 2.8935 10.373L2.9675 10.412L3.0485 10.454C3.1835 10.527 3.3095 10.587 3.4275 10.634C3.7725 10.78 4.0975 10.854 4.4045 10.854C4.56476 10.8575 4.72414 10.8292 4.87344 10.7709C5.02275 10.7125 5.15905 10.6252 5.2745 10.514C5.5745 10.229 5.7235 9.8 5.7235 9.228C5.71994 8.82269 5.60397 8.42631 5.3885 8.083C5.0895 7.626 4.6565 7.398 4.0885 7.398C3.5865 7.398 3.1725 7.59 2.8465 7.973C2.7335 8.105 2.6365 8.257 2.5525 8.429C2.5205 8.491 2.4925 8.554 2.4685 8.62C2.45635 8.64512 2.44632 8.67121 2.4385 8.698C2.43078 8.71786 2.42345 8.73786 2.4165 8.758C2.3135 9.067 2.2455 9.243 2.2115 9.288C2.1395 9.378 1.9975 9.428 1.7845 9.435C1.6615 9.43 1.5755 9.405 1.5285 9.359C1.4715 9.305 1.4435 9.206 1.4435 9.062V6L0.242496 5.5V9.062C0.242496 9.323 0.290496 9.558 0.385496 9.765C0.456496 9.923 0.553496 10.061 0.675496 10.178C0.798496 10.296 0.941496 10.389 1.1055 10.458C1.3035 10.542 1.5255 10.588 1.7705 10.594V10.595H1.8065ZM4.5585 9.581C4.60023 9.46831 4.61529 9.34749 4.6025 9.228C4.5946 9.05858 4.53723 8.89518 4.4375 8.758C4.3375 8.624 4.2205 8.557 4.0875 8.557C3.9075 8.557 3.7575 8.66 3.6405 8.867C3.5985 8.938 3.5605 9.025 3.5265 9.129C3.51213 9.16865 3.49879 9.20866 3.4865 9.249L3.4715 9.302L3.4565 9.348C3.5985 9.466 3.7795 9.564 4.0005 9.641C4.1805 9.703 4.3255 9.733 4.4335 9.733C4.4775 9.733 4.5195 9.683 4.5585 9.581Z" fill="#1E1E1E"/>
</g>
<defs>
<clipPath id="clip0_36_824">
<rect width="12" height="12" fill="white"/>
</clipPath>
</defs>
</svg>
