<svg width="18" height="14" viewBox="0 0 18 14" fill="none" xmlns="http://www.w3.org/2000/svg">
<path fill-rule="evenodd" clip-rule="evenodd" d="M5.4 0.000439255C4.44522 0.000439255 3.52955 0.369176 2.85442 1.02553C2.17928 1.68189 1.8 2.5721 1.8 3.50033C1.8 4.42856 2.17928 5.31877 2.85442 5.97513C3.52955 6.63148 4.44522 7.00022 5.4 7.00022C6.35478 7.00022 7.27045 6.63148 7.94558 5.97513C8.62072 5.31877 9 4.42856 9 3.50033C9 2.5721 8.62072 1.68189 7.94558 1.02553C7.27045 0.369176 6.35478 0.000439255 5.4 0.000439255ZM3.6 7.87519C2.64522 7.87519 1.72955 8.24393 1.05442 8.90029C0.379285 9.55664 0 10.4469 0 11.3751V12.2501C0 12.7142 0.189642 13.1593 0.527208 13.4875C0.864773 13.8156 1.32261 14 1.8 14H9C9.47739 14 9.93523 13.8156 10.2728 13.4875C10.6104 13.1593 10.8 12.7142 10.8 12.2501V11.3751C10.8 10.4469 10.4207 9.55664 9.74558 8.90029C9.07045 8.24393 8.15478 7.87519 7.2 7.87519H3.6ZM10.125 6.04212C10.5552 5.28965 10.8 4.42343 10.8 3.50033C10.8002 2.61087 10.5679 1.73594 10.125 0.957659C10.636 0.487562 11.2776 0.173344 11.9703 0.0538379C12.663 -0.0656681 13.3766 0.0147764 14.0228 0.285229C14.669 0.555683 15.2195 1.00429 15.6063 1.57561C15.9931 2.14693 16.1993 2.81591 16.1993 3.49989C16.1993 4.18387 15.9931 4.85286 15.6063 5.42418C15.2195 5.99549 14.669 6.4441 14.0228 6.71455C13.3766 6.98501 12.663 7.06545 11.9703 6.94595C11.2776 6.82644 10.636 6.51222 10.125 6.04212ZM12.1194 14C12.4254 13.4855 12.6009 12.8879 12.6009 12.2501V11.3751C12.6026 10.0834 12.1127 8.83681 11.2257 7.87519H14.4C15.3548 7.87519 16.2705 8.24393 16.9456 8.90029C17.6207 9.55664 18 10.4469 18 11.3751V12.2501C18 12.7142 17.8104 13.1593 17.4728 13.4875C17.1352 13.8156 16.6774 14 16.2 14H12.1194Z" fill="#2C2C2C"/>
</svg>
