<svg width="24" height="24" viewBox="0 0 24 24" fill="none" xmlns="http://www.w3.org/2000/svg">
<path d="M15 7C15 8.65685 13.6569 10 12 10V12C14.7614 12 17 9.76142 17 7H15ZM12 10C10.3431 10 9 8.65685 9 7H7C7 9.76142 9.23858 12 12 12V10ZM9 7C9 5.34315 10.3431 4 12 4V2C9.23858 2 7 4.23858 7 7H9ZM12 4C13.6569 4 15 5.34315 15 7H17C17 4.23858 14.7614 2 12 2V4ZM18 17.5C18 17.8837 17.663 18.5002 16.5025 19.0804C15.4019 19.6308 13.8114 20 12 20V22C14.0546 22 15.9641 21.5857 17.397 20.8693C18.77 20.1828 20 19.0493 20 17.5H18ZM12 20C10.1886 20 8.5981 19.6308 7.49747 19.0804C6.33702 18.5002 6 17.8837 6 17.5H4C4 19.0493 5.22998 20.1828 6.60304 20.8693C8.03591 21.5857 9.94542 22 12 22V20ZM6 17.5C6 17.1163 6.33702 16.4998 7.49747 15.9196C8.5981 15.3692 10.1886 15 12 15V13C9.94542 13 8.03591 13.4143 6.60304 14.1307C5.22998 14.8172 4 15.9507 4 17.5H6ZM12 15C13.8114 15 15.4019 15.3692 16.5025 15.9196C17.663 16.4998 18 17.1163 18 17.5H20C20 15.9507 18.77 14.8172 17.397 14.1307C15.9641 13.4143 14.0546 13 12 13V15Z" fill="#373333"/>
</svg>
