<svg width="35" height="35" viewBox="0 0 35 35" fill="none" xmlns="http://www.w3.org/2000/svg">
<path d="M13.125 27.7083C13.125 28.8021 12.8187 29.8375 12.2791 30.7125C11.2729 32.4042 9.42081 33.5417 7.29165 33.5417C5.16248 33.5417 3.3104 32.4042 2.30415 30.7125C1.76457 29.8375 1.45831 28.8021 1.45831 27.7083C1.45831 24.4854 4.06873 21.875 7.29165 21.875C10.5146 21.875 13.125 24.4854 13.125 27.7083Z" stroke="#5EB5F8" stroke-width="2" stroke-miterlimit="10" stroke-linecap="round" stroke-linejoin="round"/>
<path d="M5.01868 27.7076L6.46243 29.1514L9.56868 26.2785" stroke="#5EB5F8" stroke-width="2" stroke-linecap="round" stroke-linejoin="round"/>
<path d="M25.8875 10.2812C25.5375 10.2229 25.1729 10.2083 24.7937 10.2083H10.2104C9.80203 10.2083 9.40828 10.2375 9.02911 10.2958C9.23328 9.88749 9.52495 9.50837 9.87495 9.15837L14.6145 4.40419C16.6125 2.42085 19.8499 2.42085 21.8479 4.40419L24.4 6.98538C25.3333 7.90413 25.8291 9.07081 25.8875 10.2812Z" stroke="#121111" stroke-width="2" stroke-linecap="round" stroke-linejoin="round"/>
<path d="M32.0834 17.5V24.7916C32.0834 29.1666 29.1667 32.0833 24.7917 32.0833H11.1271C11.5792 31.7041 11.9729 31.2375 12.2792 30.7125C12.8188 29.8375 13.125 28.8021 13.125 27.7083C13.125 24.4854 10.5146 21.875 7.29169 21.875C5.54169 21.875 3.98127 22.6479 2.91669 23.8583V17.5C2.91669 13.5333 5.30835 10.7625 9.0271 10.2958C9.40627 10.2375 9.80002 10.2083 10.2084 10.2083H24.7917C25.1709 10.2083 25.5354 10.2229 25.8854 10.2812C29.6479 10.7187 32.0834 13.5041 32.0834 17.5Z" stroke="#121111" stroke-width="2" stroke-linecap="round" stroke-linejoin="round"/>
<path d="M32.0834 18.2292H27.7084C26.1042 18.2292 24.7917 19.5417 24.7917 21.1459C24.7917 22.75 26.1042 24.0625 27.7084 24.0625H32.0834" stroke="#121111" stroke-width="2" stroke-linecap="round" stroke-linejoin="round"/>
</svg>
