<svg width="113" height="38" viewBox="0 0 113 38" fill="none" xmlns="http://www.w3.org/2000/svg">
<path d="M13.112 18.172C13.112 18.6413 13.2587 18.9933 13.552 19.228C13.86 19.4627 14.2413 19.58 14.696 19.58C15.796 19.58 16.346 19.1033 16.346 18.15V15.554H18.568V18.15C18.568 18.6633 18.7 19.03 18.964 19.25C19.2427 19.47 19.5653 19.58 19.932 19.58C20.856 19.58 21.318 19.1033 21.318 18.15V15.554H23.562V18.15C23.562 18.6633 23.716 19.03 24.024 19.25C24.3467 19.47 24.706 19.58 25.102 19.58H25.608C25.7987 19.58 25.9233 19.6827 25.982 19.888C26.0553 20.0787 26.092 20.3647 26.092 20.746C26.092 21.1713 26.0553 21.4867 25.982 21.692C25.9233 21.8973 25.7987 22 25.608 22H25.102C24.5447 22 24.0313 21.912 23.562 21.736C23.1073 21.5453 22.7187 21.1713 22.396 20.614C22.044 21.1713 21.6407 21.5453 21.186 21.736C20.746 21.912 20.328 22 19.932 22C19.4333 22 18.9713 21.912 18.546 21.736C18.1207 21.5453 17.7393 21.1713 17.402 20.614C17.05 21.1713 16.6393 21.5453 16.17 21.736C15.7153 21.912 15.2533 22 14.784 22C14.3733 22 14.0213 21.9413 13.728 21.824C13.4493 21.692 13.2147 21.5233 13.024 21.318V21.648C13.024 22.396 12.8993 23.1147 12.65 23.804C12.4007 24.4933 12.0413 25.0947 11.572 25.608C11.1173 26.136 10.5527 26.554 9.878 26.862C9.20333 27.17 8.448 27.324 7.612 27.324H6.226C4.58333 27.324 3.30733 26.818 2.398 25.806C1.48867 24.794 1.034 23.408 1.034 21.648V17.71H3.256V21.56C3.256 22.0733 3.31467 22.5353 3.432 22.946C3.54933 23.3567 3.73267 23.7087 3.982 24.002C4.246 24.2953 4.58333 24.5227 4.994 24.684C5.41933 24.8453 5.93267 24.926 6.534 24.926H7.502C8.118 24.926 8.63867 24.8307 9.064 24.64C9.504 24.464 9.856 24.2147 10.12 23.892C10.3987 23.584 10.5967 23.2173 10.714 22.792C10.8313 22.3813 10.89 21.9413 10.89 21.472V15.554H13.112V18.172ZM27.1494 19.58C28.132 19.58 28.6234 19.1033 28.6234 18.15V15.554H30.8894V18.15C30.8894 18.6633 31.0434 19.03 31.3514 19.25C31.674 19.47 32.048 19.58 32.4734 19.58H33.0454C33.3827 19.58 33.5514 19.9687 33.5514 20.746C33.5514 21.582 33.3827 22 33.0454 22H32.4074C31.85 22 31.344 21.912 30.8894 21.736C30.4347 21.5453 30.0387 21.1713 29.7014 20.614C29.3347 21.1713 28.9387 21.5453 28.5134 21.736C28.088 21.912 27.6334 22 27.1494 22H25.6094C25.4187 22 25.294 21.9047 25.2354 21.714C25.162 21.5087 25.1254 21.2153 25.1254 20.834C25.1254 20.4087 25.162 20.0933 25.2354 19.888C25.294 19.6827 25.4187 19.58 25.6094 19.58H27.1494ZM32.0334 26.62H29.7674V24.464H32.0334V26.62ZM28.8654 26.62H26.5994V24.464H28.8654V26.62ZM33.241 19.58C33.7396 19.58 34.1283 19.4847 34.407 19.294C34.6856 19.0887 34.825 18.7587 34.825 18.304V17.82C34.825 17.2333 34.9056 16.6907 35.067 16.192C35.243 15.6933 35.4923 15.268 35.815 14.916C36.1376 14.564 36.5263 14.2927 36.981 14.102C37.4503 13.8967 37.971 13.794 38.543 13.794C39.1443 13.794 39.6723 13.8967 40.127 14.102C40.5963 14.2927 40.985 14.5713 41.293 14.938C41.601 15.29 41.8356 15.7153 41.997 16.214C42.1583 16.7127 42.239 17.2553 42.239 17.842C42.239 19.162 41.9016 20.1887 41.227 20.922C40.567 21.6407 39.665 22 38.521 22C37.9343 22 37.3696 21.89 36.827 21.67C36.299 21.4353 35.8956 21.0687 35.617 20.57C35.3383 21.142 34.979 21.5233 34.539 21.714C34.099 21.9047 33.6663 22 33.241 22H33.043C32.8523 22 32.7276 21.9047 32.669 21.714C32.5956 21.5087 32.559 21.2153 32.559 20.834C32.559 20.4087 32.5956 20.0933 32.669 19.888C32.7276 19.6827 32.8523 19.58 33.043 19.58H33.241ZM40.083 17.996C40.083 17.4973 39.9656 17.0793 39.731 16.742C39.511 16.4047 39.1076 16.236 38.521 16.236C37.9636 16.236 37.5603 16.4047 37.311 16.742C37.0763 17.0647 36.959 17.49 36.959 18.018C36.959 18.5313 37.0983 18.92 37.377 19.184C37.6556 19.448 38.037 19.58 38.521 19.58C39.5623 19.58 40.083 19.052 40.083 17.996ZM44.8064 8.36H47.0504V22H44.8064V8.36ZM52.6488 21.648C52.6488 22.44 52.5094 23.1807 52.2308 23.87C51.9668 24.5593 51.5928 25.1607 51.1088 25.674C50.6394 26.1873 50.0748 26.5907 49.4148 26.884C48.7694 27.1773 48.0727 27.324 47.3247 27.324H45.9387L45.8287 24.926H46.7527C47.4127 24.926 47.9774 24.8307 48.4467 24.64C48.9014 24.464 49.2754 24.222 49.5688 23.914C49.8621 23.606 50.0748 23.254 50.2068 22.858C50.3388 22.462 50.4048 22.0587 50.4048 21.648V15.554H52.6488V21.648ZM55.2049 11.66H57.4489V22H55.2049V11.66ZM55.0949 9.394C54.8015 9.394 54.5742 9.42333 54.4129 9.482C54.2515 9.54067 54.1122 9.70933 53.9949 9.988L53.5329 11.022L52.1249 10.34L52.8069 8.822C52.9389 8.52867 53.0709 8.28667 53.2029 8.096C53.3202 7.90533 53.4595 7.75133 53.6209 7.634C53.7822 7.51667 53.9729 7.436 54.1929 7.392C54.4129 7.348 54.6842 7.326 55.0069 7.326H59.4509L59.3629 9.394H55.0949Z" fill="white"/>
<circle cx="97.7188" cy="15" r="15" fill="white"/>
<circle cx="86" cy="25" r="13" fill="#5EB5F8"/>
</svg>
