<svg width="122" height="45" viewBox="0 0 122 45" fill="none" xmlns="http://www.w3.org/2000/svg">
<path d="M13.112 21.672C13.112 22.1413 13.2587 22.4933 13.552 22.728C13.86 22.9627 14.2413 23.08 14.696 23.08C15.796 23.08 16.346 22.6033 16.346 21.65V19.054H18.568V21.65C18.568 22.1633 18.7 22.53 18.964 22.75C19.2427 22.97 19.5653 23.08 19.932 23.08C20.856 23.08 21.318 22.6033 21.318 21.65V19.054H23.562V21.65C23.562 22.1633 23.716 22.53 24.024 22.75C24.3467 22.97 24.706 23.08 25.102 23.08H25.608C25.7987 23.08 25.9233 23.1827 25.982 23.388C26.0553 23.5787 26.092 23.8647 26.092 24.246C26.092 24.6713 26.0553 24.9867 25.982 25.192C25.9233 25.3973 25.7987 25.5 25.608 25.5H25.102C24.5447 25.5 24.0313 25.412 23.562 25.236C23.1073 25.0453 22.7187 24.6713 22.396 24.114C22.044 24.6713 21.6407 25.0453 21.186 25.236C20.746 25.412 20.328 25.5 19.932 25.5C19.4333 25.5 18.9713 25.412 18.546 25.236C18.1207 25.0453 17.7393 24.6713 17.402 24.114C17.05 24.6713 16.6393 25.0453 16.17 25.236C15.7153 25.412 15.2533 25.5 14.784 25.5C14.3733 25.5 14.0213 25.4413 13.728 25.324C13.4493 25.192 13.2147 25.0233 13.024 24.818V25.148C13.024 25.896 12.8993 26.6147 12.65 27.304C12.4007 27.9933 12.0413 28.5947 11.572 29.108C11.1173 29.636 10.5527 30.054 9.878 30.362C9.20333 30.67 8.448 30.824 7.612 30.824H6.226C4.58333 30.824 3.30733 30.318 2.398 29.306C1.48867 28.294 1.034 26.908 1.034 25.148V21.21H3.256V25.06C3.256 25.5733 3.31467 26.0353 3.432 26.446C3.54933 26.8567 3.73267 27.2087 3.982 27.502C4.246 27.7953 4.58333 28.0227 4.994 28.184C5.41933 28.3453 5.93267 28.426 6.534 28.426H7.502C8.118 28.426 8.63867 28.3307 9.064 28.14C9.504 27.964 9.856 27.7147 10.12 27.392C10.3987 27.084 10.5967 26.7173 10.714 26.292C10.8313 25.8813 10.89 25.4413 10.89 24.972V19.054H13.112V21.672ZM27.1494 23.08C28.132 23.08 28.6234 22.6033 28.6234 21.65V19.054H30.8894V21.65C30.8894 22.1633 31.0434 22.53 31.3514 22.75C31.674 22.97 32.048 23.08 32.4734 23.08H33.0454C33.3827 23.08 33.5514 23.4687 33.5514 24.246C33.5514 25.082 33.3827 25.5 33.0454 25.5H32.4074C31.85 25.5 31.344 25.412 30.8894 25.236C30.4347 25.0453 30.0387 24.6713 29.7014 24.114C29.3347 24.6713 28.9387 25.0453 28.5134 25.236C28.088 25.412 27.6334 25.5 27.1494 25.5H25.6094C25.4187 25.5 25.294 25.4047 25.2354 25.214C25.162 25.0087 25.1254 24.7153 25.1254 24.334C25.1254 23.9087 25.162 23.5933 25.2354 23.388C25.294 23.1827 25.4187 23.08 25.6094 23.08H27.1494ZM32.0334 30.12H29.7674V27.964H32.0334V30.12ZM28.8654 30.12H26.5994V27.964H28.8654V30.12ZM33.241 23.08C33.7396 23.08 34.1283 22.9847 34.407 22.794C34.6856 22.5887 34.825 22.2587 34.825 21.804V21.32C34.825 20.7333 34.9056 20.1907 35.067 19.692C35.243 19.1933 35.4923 18.768 35.815 18.416C36.1376 18.064 36.5263 17.7927 36.981 17.602C37.4503 17.3967 37.971 17.294 38.543 17.294C39.1443 17.294 39.6723 17.3967 40.127 17.602C40.5963 17.7927 40.985 18.0713 41.293 18.438C41.601 18.79 41.8356 19.2153 41.997 19.714C42.1583 20.2127 42.239 20.7553 42.239 21.342C42.239 22.662 41.9016 23.6887 41.227 24.422C40.567 25.1407 39.665 25.5 38.521 25.5C37.9343 25.5 37.3696 25.39 36.827 25.17C36.299 24.9353 35.8956 24.5687 35.617 24.07C35.3383 24.642 34.979 25.0233 34.539 25.214C34.099 25.4047 33.6663 25.5 33.241 25.5H33.043C32.8523 25.5 32.7276 25.4047 32.669 25.214C32.5956 25.0087 32.559 24.7153 32.559 24.334C32.559 23.9087 32.5956 23.5933 32.669 23.388C32.7276 23.1827 32.8523 23.08 33.043 23.08H33.241ZM40.083 21.496C40.083 20.9973 39.9656 20.5793 39.731 20.242C39.511 19.9047 39.1076 19.736 38.521 19.736C37.9636 19.736 37.5603 19.9047 37.311 20.242C37.0763 20.5647 36.959 20.99 36.959 21.518C36.959 22.0313 37.0983 22.42 37.377 22.684C37.6556 22.948 38.037 23.08 38.521 23.08C39.5623 23.08 40.083 22.552 40.083 21.496ZM44.8064 11.86H47.0504V25.5H44.8064V11.86ZM52.6488 25.148C52.6488 25.94 52.5094 26.6807 52.2308 27.37C51.9668 28.0593 51.5928 28.6607 51.1088 29.174C50.6394 29.6873 50.0748 30.0907 49.4148 30.384C48.7694 30.6773 48.0727 30.824 47.3247 30.824H45.9387L45.8287 28.426H46.7527C47.4127 28.426 47.9774 28.3307 48.4467 28.14C48.9014 27.964 49.2754 27.722 49.5688 27.414C49.8621 27.106 50.0748 26.754 50.2068 26.358C50.3388 25.962 50.4048 25.5587 50.4048 25.148V19.054H52.6488V25.148ZM55.2049 15.16H57.4489V25.5H55.2049V15.16ZM55.0949 12.894C54.8015 12.894 54.5742 12.9233 54.4129 12.982C54.2515 13.0407 54.1122 13.2093 53.9949 13.488L53.5329 14.522L52.1249 13.84L52.8069 12.322C52.9389 12.0287 53.0709 11.7867 53.2029 11.596C53.3202 11.4053 53.4595 11.2513 53.6209 11.134C53.7822 11.0167 53.9729 10.936 54.1929 10.892C54.4129 10.848 54.6842 10.826 55.0069 10.826H59.4509L59.3629 12.894H55.0949Z" fill="#3C3C3C"/>
<circle cx="105.5" cy="16.5" r="16.5" fill="#363636"/>
<circle cx="88" cy="30" r="15" fill="#5EB5F8"/>
</svg>
